<svg width="22" height="22" viewBox="0 0 22 22" fill="none" xmlns="http://www.w3.org/2000/svg">
<path d="M1 4.75C1 3.58515 1 3.00272 1.1903 2.54329C1.44404 1.93072 1.93072 1.44404 2.54329 1.1903C3.00272 1 3.58515 1 4.75 1C5.91485 1 6.49728 1 6.95671 1.1903C7.56928 1.44404 8.05596 1.93072 8.3097 2.54329C8.5 3.00272 8.5 3.58515 8.5 4.75C8.5 5.91485 8.5 6.49728 8.3097 6.95671C8.05596 7.56928 7.56928 8.05596 6.95671 8.3097C6.49728 8.5 5.91485 8.5 4.75 8.5C3.58515 8.5 3.00272 8.5 2.54329 8.3097C1.93072 8.05596 1.44404 7.56928 1.1903 6.95671C1 6.49728 1 5.91485 1 4.75Z" stroke="#00B761" stroke-width="1.5"/>
<path d="M13.5 4.75C13.5 3.58515 13.5 3.00272 13.6903 2.54329C13.944 1.93072 14.4307 1.44404 15.0433 1.1903C15.5027 1 16.0851 1 17.25 1C18.4149 1 18.9973 1 19.4567 1.1903C20.0693 1.44404 20.556 1.93072 20.8097 2.54329C21 3.00272 21 3.58515 21 4.75C21 5.91485 21 6.49728 20.8097 6.95671C20.556 7.56928 20.0693 8.05596 19.4567 8.3097C18.9973 8.5 18.4149 8.5 17.25 8.5C16.0851 8.5 15.5027 8.5 15.0433 8.3097C14.4307 8.05596 13.944 7.56928 13.6903 6.95671C13.5 6.49728 13.5 5.91485 13.5 4.75Z" stroke="#00B761" stroke-width="1.5"/>
<path d="M1 17.25C1 16.0851 1 15.5027 1.1903 15.0433C1.44404 14.4307 1.93072 13.944 2.54329 13.6903C3.00272 13.5 3.58515 13.5 4.75 13.5C5.91485 13.5 6.49728 13.5 6.95671 13.6903C7.56928 13.944 8.05596 14.4307 8.3097 15.0433C8.5 15.5027 8.5 16.0851 8.5 17.25C8.5 18.4149 8.5 18.9973 8.3097 19.4567C8.05596 20.0693 7.56928 20.556 6.95671 20.8097C6.49728 21 5.91485 21 4.75 21C3.58515 21 3.00272 21 2.54329 20.8097C1.93072 20.556 1.44404 20.0693 1.1903 19.4567C1 18.9973 1 18.4149 1 17.25Z" stroke="#00B761" stroke-width="1.5"/>
<path d="M13.5 17.25C13.5 16.0851 13.5 15.5027 13.6903 15.0433C13.944 14.4307 14.4307 13.944 15.0433 13.6903C15.5027 13.5 16.0851 13.5 17.25 13.5C18.4149 13.5 18.9973 13.5 19.4567 13.6903C20.0693 13.944 20.556 14.4307 20.8097 15.0433C21 15.5027 21 16.0851 21 17.25C21 18.4149 21 18.9973 20.8097 19.4567C20.556 20.0693 20.0693 20.556 19.4567 20.8097C18.9973 21 18.4149 21 17.25 21C16.0851 21 15.5027 21 15.0433 20.8097C14.4307 20.556 13.944 20.0693 13.6903 19.4567C13.5 18.9973 13.5 18.4149 13.5 17.25Z" stroke="#00B761" stroke-width="1.5"/>
</svg>
