<svg id="background" xmlns="http://www.w3.org/2000/svg" viewBox="0 0 1133.2 1253.74"><defs><style>.cls-1,.cls-4{fill:#1b763b;}.cls-2{fill:#8bc53f;}.cls-3{fill:#f6921e;}.cls-4{font-size:252.54px;font-family:#9Slide03IcielPantonBlack, "#9Slide03 IcielPanton Black";}.cls-5{fill:#000;}.cls-6,.cls-7{fill:#81ba41;}.cls-6{letter-spacing:-0.03em;}</style></defs><path class="cls-1" d="M296,659.49c152.58,146.64,377.09,198,434.59,207.23C691.15,594.48,428.94,402.82,150,459.92,112.52,784.25,436.1,1026.6,734.65,905.8c0-.23,0-.46,0-.68C417.85,866.47,296,659.49,296,659.49Z" transform="translate(-39.25 -14.24)"/><path class="cls-2" d="M999,459.92a487.94,487.94,0,0,0-398.44,93.63,523.72,523.72,0,0,1,105,134.12c65.13-36.92,166.11-99.22,201.66-150-44.52,81.09-97.3,118.23-186.59,179.88A517.52,517.52,0,0,1,767.21,891c139.21-70.47,234.71-214.74,234.71-381.44A431.72,431.72,0,0,0,999,459.92Z" transform="translate(-39.25 -14.24)"/><path class="cls-3" d="M458.29,290l30.95,181.28a462.84,462.84,0,0,1,64.61,35.25L496.54,281.81c43.14-20,69.55-84.31,55.14-152.08-16-75.12-76-126-134.15-113.65s-92.3,83.27-76.34,158.39C355.59,242.25,405.9,290.27,458.29,290Z" transform="translate(-39.25 -14.24)"/><path class="cls-3" d="M659.21,293.67,605.86,502.86a457.84,457.84,0,0,1,63-33.48l28.62-167.57C745,301.09,780.73,250,795.14,182.2c4.71-22.19,15.63-82.13,7.76-119.72a6.45,6.45,0,0,0-12.62,0L760.84,201a11.62,11.62,0,0,1-13.77,8.95l-.67-.15A11.63,11.63,0,0,1,737.45,196l29.3-137.83a12.59,12.59,0,0,0-9.71-15l-.23-.05a12.6,12.6,0,0,0-15,9.72l-29.3,137.83a11.64,11.64,0,0,1-13.78,8.95l-.66-.15a11.6,11.6,0,0,1-8.94-13.77L718.46,47.91a12.62,12.62,0,0,0-9.72-15,12.86,12.86,0,0,0-15.24,9.9l-29.24,137.6a11.62,11.62,0,0,1-13.78,8.95l-.66-.15a11.62,11.62,0,0,1-9-13.77l29.57-139.1a6.45,6.45,0,0,0-11.23-5.51C634.58,60,619.09,118.69,613.78,143.65,599.38,211.42,611.22,272.66,659.21,293.67Z" transform="translate(-39.25 -14.24)"/><text class="cls-4" transform="translate(0 1179.6)">Oh!<tspan class="cls-5" x="384.87" y="0"> </tspan><tspan class="cls-6" x="468.97" y="0">F</tspan><tspan class="cls-7" x="605.34" y="0">resh</tspan></text></svg>